<svg width="32" height="32" viewBox="0 0 32 32" fill="none" xmlns="http://www.w3.org/2000/svg">
<rect width="32" height="32" rx="16" fill="#8047F8"/>
<path d="M13 11.5V9.5C13 9.36739 13.0527 9.24021 13.1464 9.14645C13.2402 9.05268 13.3674 9 13.5 9C13.6326 9 13.7598 9.05268 13.8536 9.14645C13.9473 9.24021 14 9.36739 14 9.5V11.5C14 11.6326 13.9473 11.7598 13.8536 11.8536C13.7598 11.9473 13.6326 12 13.5 12C13.3674 12 13.2402 11.9473 13.1464 11.8536C13.0527 11.7598 13 11.6326 13 11.5ZM15.5 12C15.6326 12 15.7598 11.9473 15.8536 11.8536C15.9473 11.7598 16 11.6326 16 11.5V9.5C16 9.36739 15.9473 9.24021 15.8536 9.14645C15.7598 9.05268 15.6326 9 15.5 9C15.3674 9 15.2402 9.05268 15.1464 9.14645C15.0527 9.24021 15 9.36739 15 9.5V11.5C15 11.6326 15.0527 11.7598 15.1464 11.8536C15.2402 11.9473 15.3674 12 15.5 12ZM17.5 12C17.6326 12 17.7598 11.9473 17.8536 11.8536C17.9473 11.7598 18 11.6326 18 11.5V9.5C18 9.36739 17.9473 9.24021 17.8536 9.14645C17.7598 9.05268 17.6326 9 17.5 9C17.3674 9 17.2402 9.05268 17.1464 9.14645C17.0527 9.24021 17 9.36739 17 9.5V11.5C17 11.6326 17.0527 11.7598 17.1464 11.8536C17.2402 11.9473 17.3674 12 17.5 12ZM23.5 15.5V16C23.4997 16.6358 23.2571 17.2475 22.8217 17.7108C22.3863 18.174 21.7908 18.454 21.1562 18.4937C20.8119 19.457 20.2317 20.3186 19.4688 21H21C21.1326 21 21.2598 21.0527 21.3536 21.1464C21.4473 21.2402 21.5 21.3674 21.5 21.5C21.5 21.6326 21.4473 21.7598 21.3536 21.8536C21.2598 21.9473 21.1326 22 21 22H10C9.86739 22 9.74021 21.9473 9.64645 21.8536C9.55268 21.7598 9.5 21.6326 9.5 21.5C9.5 21.3674 9.55268 21.2402 9.64645 21.1464C9.74021 21.0527 9.86739 21 10 21H11.5312C10.8941 20.4359 10.3836 19.7432 10.0335 18.9676C9.68341 18.192 9.50158 17.351 9.5 16.5V13.5C9.5 13.3674 9.55268 13.2402 9.64645 13.1464C9.74021 13.0527 9.86739 13 10 13H21C21.663 13 22.2989 13.2634 22.7678 13.7322C23.2366 14.2011 23.5 14.837 23.5 15.5ZM22.5 15.5C22.4996 15.1901 22.4033 14.8879 22.2243 14.635C22.0452 14.3821 21.7922 14.1908 21.5 14.0875V16.5C21.5004 16.814 21.4753 17.1275 21.425 17.4375C21.7352 17.3458 22.0075 17.1564 22.2013 16.8973C22.395 16.6382 22.4998 16.3235 22.5 16V15.5Z" fill="#FAFAFA"/>
</svg>
