<svg width="32" height="32" viewBox="0 0 32 32" fill="none" xmlns="http://www.w3.org/2000/svg">
<rect width="32" height="32" rx="16" fill="#C47F17"/>
<path d="M21.9938 12.0875L21.2313 16.2688C21.1683 16.6142 20.9863 16.9265 20.7168 17.1515C20.4472 17.3765 20.1073 17.4998 19.7563 17.5H12.5063L12.7813 19H19.5C19.7967 19 20.0867 19.088 20.3334 19.2528C20.58 19.4176 20.7723 19.6519 20.8858 19.926C20.9994 20.2001 21.0291 20.5017 20.9712 20.7926C20.9133 21.0836 20.7704 21.3509 20.5607 21.5607C20.3509 21.7704 20.0836 21.9133 19.7926 21.9712C19.5017 22.0291 19.2001 21.9994 18.926 21.8858C18.6519 21.7723 18.4176 21.58 18.2528 21.3334C18.088 21.0867 18 20.7967 18 20.5C18.0001 20.3295 18.0297 20.1604 18.0875 20H14.4125C14.4703 20.1604 14.4999 20.3295 14.5 20.5C14.5005 20.742 14.4423 20.9805 14.3306 21.1952C14.2189 21.4099 14.0569 21.5944 13.8584 21.7329C13.66 21.8714 13.4309 21.9598 13.1909 21.9906C12.9508 22.0214 12.7069 21.9937 12.4799 21.9097C12.2529 21.8258 12.0496 21.6882 11.8873 21.5087C11.725 21.3292 11.6085 21.113 11.5479 20.8787C11.4872 20.6445 11.4842 20.399 11.5389 20.1632C11.5937 19.9275 11.7047 19.7085 11.8625 19.525L10.1313 10H9C8.86739 10 8.74021 9.94732 8.64645 9.85355C8.55268 9.75979 8.5 9.63261 8.5 9.5C8.5 9.36739 8.55268 9.24021 8.64645 9.14645C8.74021 9.05268 8.86739 9 9 9H10.1313C10.3646 9.00051 10.5905 9.08265 10.7697 9.23218C10.9489 9.38171 11.0702 9.58922 11.1125 9.81875L11.4188 11.5H21.5C21.573 11.5002 21.645 11.5165 21.711 11.5478C21.7769 11.5792 21.8351 11.6247 21.8813 11.6813C21.9296 11.736 21.9649 11.801 21.9843 11.8714C22.0038 11.9418 22.0071 12.0157 21.9938 12.0875Z" fill="#FAFAFA"/>
</svg>
