<svg width="32" height="32" viewBox="0 0 32 32" fill="none" xmlns="http://www.w3.org/2000/svg">
<rect width="32" height="32" rx="16" fill="#574F4D"/>
<path d="M22.3688 12.425C22.3671 12.425 22.3655 12.4243 22.3643 12.4231C22.3632 12.422 22.3625 12.4204 22.3625 12.4187C22.2722 12.2649 22.1428 12.1377 21.9875 12.05L16.4875 8.95622C16.3385 8.87302 16.1707 8.82935 16 8.82935C15.8293 8.82935 15.6615 8.87302 15.5125 8.95622L10.0125 12.05C9.85721 12.1377 9.72784 12.2649 9.6375 12.4187C9.6375 12.4204 9.63685 12.422 9.63567 12.4231C9.6345 12.4243 9.63291 12.425 9.63125 12.425V12.4375C9.54485 12.5831 9.49949 12.7494 9.5 12.9187V19.0812C9.50032 19.2594 9.54793 19.4343 9.63798 19.588C9.72802 19.7417 9.85727 19.8688 10.0125 19.9562L15.5125 23.05C15.651 23.1255 15.8049 23.1683 15.9625 23.175H16.05C16.2036 23.1682 16.3535 23.1253 16.4875 23.05L21.9875 19.9562C22.1427 19.8688 22.272 19.7417 22.362 19.588C22.4521 19.4343 22.4997 19.2594 22.5 19.0812V12.9187C22.5009 12.7454 22.4556 12.575 22.3688 12.425ZM16 9.82497L20.9813 12.625L19.0688 13.7125L14.025 10.9312L16 9.82497ZM16.0563 15.425L11.025 12.625L13 11.5125L18.05 14.2937L16.0563 15.425ZM16.5063 21.8937L16.5563 16.2937L18.5625 15.15V17.5312C18.5625 17.6638 18.6152 17.791 18.709 17.8848C18.8027 17.9785 18.9299 18.0312 19.0625 18.0312C19.1951 18.0312 19.3223 17.9785 19.4161 17.8848C19.5098 17.791 19.5625 17.6638 19.5625 17.5312V14.5812L21.5 13.4812V19.0812L16.5063 21.8937Z" fill="#FAFAFA"/>
</svg>
