<svg width="32" height="32" viewBox="0 0 32 32" fill="none" xmlns="http://www.w3.org/2000/svg">
<rect width="32" height="32" rx="16" fill="#DBAC2C"/>
<path d="M14.5 9H17.5C17.6326 9 17.7598 8.94732 17.8536 8.85355C17.9473 8.75979 18 8.63261 18 8.5C18 8.36739 17.9473 8.24021 17.8536 8.14645C17.7598 8.05268 17.6326 8 17.5 8H14.5C14.3674 8 14.2402 8.05268 14.1464 8.14645C14.0527 8.24021 14 8.36739 14 8.5C14 8.63261 14.0527 8.75979 14.1464 8.85355C14.2402 8.94732 14.3674 9 14.5 9Z" fill="#FAFAFA"/>
<path d="M16 10C14.8133 10 13.6533 10.3519 12.6666 11.0112C11.6799 11.6705 10.9109 12.6075 10.4567 13.7039C10.0026 14.8003 9.88378 16.0067 10.1153 17.1705C10.3468 18.3344 10.9182 19.4035 11.7574 20.2426C12.5965 21.0818 13.6656 21.6532 14.8295 21.8847C15.9933 22.1162 17.1997 21.9974 18.2961 21.5433C19.3925 21.0892 20.3295 20.3201 20.9888 19.3334C21.6481 18.3467 22 17.1867 22 16C21.9967 14.4097 21.3635 12.8855 20.239 11.761C19.1145 10.6365 17.5903 10.0033 16 10ZM18.8313 13.8812L16.3563 16.3562C16.2607 16.4487 16.1329 16.5003 16 16.5003C15.8671 16.5003 15.7393 16.4487 15.6438 16.3562C15.5499 16.2615 15.4972 16.1334 15.4972 16C15.4972 15.8666 15.5499 15.7385 15.6438 15.6438L18.1188 13.1687C18.1636 13.1141 18.2194 13.0695 18.2825 13.0377C18.3456 13.006 18.4147 12.9877 18.4852 12.9843C18.5558 12.9808 18.6264 12.9922 18.6923 13.0176C18.7582 13.043 18.8181 13.082 18.8681 13.1319C18.918 13.1819 18.957 13.2418 18.9824 13.3077C19.0078 13.3737 19.0192 13.4442 19.0157 13.5148C19.0123 13.5853 18.9941 13.6544 18.9623 13.7175C18.9305 13.7806 18.8859 13.8364 18.8313 13.8812Z" fill="#FAFAFA"/>
</svg>
