<svg width="93" height="48" viewBox="0 0 93 48" fill="none" xmlns="http://www.w3.org/2000/svg">
<g filter="url(#filter0_d_215_431)">
<path d="M28.2175 4.10239C27.8932 3.60575 27.4194 3.59149 26.8795 3.57523C26.8183 3.57339 26.7563 3.57153 26.6936 3.56893C26.6458 3.56673 26.5931 3.56758 26.538 3.56846C26.319 3.57198 26.0629 3.57609 25.9339 3.39212C25.7843 3.17883 25.7985 2.76663 25.8102 2.42635C25.8139 2.31882 25.8173 2.21841 25.8153 2.1338C25.7943 1.34332 25.7504 0.503628 25.4453 0.22292C25.2152 0.0123098 24.5268 0.041487 23.892 0.0683954C23.6862 0.0771184 23.486 0.085603 23.3089 0.085603H9.79596C9.52389 0.085603 9.23869 0.0634489 8.95847 0.0416813C8.41245 -0.000733803 7.88533 -0.0416812 7.511 0.085603C6.96775 0.271231 6.93096 1.24667 6.89633 2.16519L6.89446 2.21461C6.86538 2.97288 6.67746 3.55799 6.05465 3.49906C5.33029 3.43161 4.6095 3.41035 4.28199 4.06594C3.89519 4.84161 3.97496 5.65358 4.11785 7.10792C4.13826 7.31567 4.15996 7.53652 4.18177 7.77225H28.4264C28.4403 7.59995 28.455 7.42986 28.4696 7.26253C28.5831 5.95406 28.682 4.81402 28.2175 4.10239Z" fill="#8047F8"/>
<path fill-rule="evenodd" clip-rule="evenodd" d="M6.06987 9.21467C6.44852 14.3395 6.82304 19.4701 7.19757 24.6009L7.1978 24.604C7.40115 27.3898 7.60451 30.1756 7.80853 32.9606H8.58212C8.63483 33.3965 8.69515 33.9347 8.75874 34.5021C8.88783 35.6539 9.03044 36.9264 9.15034 37.7083H9.2359C10.0239 37.42 15.4712 35.0916 15.4736 25.8218C15.4726 25.7954 15.4735 25.7689 15.4762 25.7427H14.1304C14.0653 25.7421 14.0021 25.7203 13.9507 25.6808C13.8993 25.6413 13.8624 25.5861 13.8458 25.5238C13.7146 25.1999 13.6089 24.8664 13.5295 24.5264C12.7378 24.9736 12.1091 25.6564 11.733 26.4775C11.3759 25.6365 11.3292 24.6983 11.6009 23.8267C11.8727 22.9551 12.4456 22.2057 13.2195 21.7093C13.2295 19.0043 14.2423 16.3968 16.0661 14.3804L16.0946 14.3553C16.1476 14.3095 16.2155 14.284 16.2859 14.2834C16.3266 14.2838 16.3668 14.2925 16.4039 14.309C16.4415 14.3257 16.4751 14.35 16.5026 14.3804C18.3478 16.3996 19.3552 19.0321 19.3239 21.7531C20.1123 22.2356 20.6969 22.9845 20.9691 23.8608C21.2413 24.7371 21.1827 25.6813 20.8042 26.5181C20.4301 25.6957 19.8008 25.0123 19.0076 24.5671C18.9592 24.8966 18.8699 25.219 18.7419 25.527C18.6977 25.6583 18.6091 25.7427 18.5205 25.7427H17.0853C17.0876 25.7584 17.0892 25.7742 17.0901 25.7901L17.0907 25.7937V25.8014C17.0912 25.815 17.0912 25.8287 17.0907 25.8424C17.1104 35.3783 22.902 37.5428 23.3902 37.7083H23.5572C23.5998 36.9572 23.7386 35.9208 23.8739 34.9104C23.9671 34.2142 24.0587 33.5302 24.116 32.9606H24.8985C25.149 29.4527 25.4066 25.9546 25.6642 22.4564L25.6644 22.4545L25.6645 22.4535C25.994 17.9789 26.3235 13.5042 26.6381 9.0087H6.11998C6.06092 9.02024 6.06495 9.11685 6.06987 9.21467ZM16.2859 14.2834L16.2844 14.2834H16.2875L16.2859 14.2834Z" fill="#8047F8"/>
<path d="M35.3088 5.69821C35.3088 4.43316 35.7446 3.45274 36.6162 2.75696C37.5037 2.04537 38.8349 1.68958 40.6099 1.68958C41.7827 1.68958 42.7811 1.80027 43.6052 2.02165V5.29498C42.7177 5.02615 41.8381 4.89174 40.9665 4.89174C40.1107 4.89174 39.556 4.99453 39.3025 5.2001C39.0489 5.38985 38.9221 5.67449 38.9221 6.05401V14.0238C38.9221 14.7829 39.5164 15.1624 40.705 15.1624C41.9094 15.1624 42.8999 15.0438 43.6765 14.8066V18.0088C42.8207 18.246 41.7827 18.3646 40.5624 18.3646C38.7874 18.3646 37.4641 18.0167 36.5925 17.3209C35.7367 16.6251 35.3088 15.6447 35.3088 14.3796V5.69821Z" fill="#403937"/>
<path d="M50.6205 7.95159C50.6205 7.35069 50.2877 7.05024 49.6221 7.05024C48.9564 7.05024 48.6236 7.35069 48.6236 7.95159V14.5457C48.6236 15.1466 48.9564 15.447 49.6221 15.447C50.2877 15.447 50.6205 15.1466 50.6205 14.5457V7.95159ZM45.1054 7.83299C45.1054 6.63119 45.4778 5.69821 46.2227 5.03406C46.9834 4.35409 48.1165 4.01411 49.6221 4.01411C51.1276 4.01411 52.2528 4.35409 52.9977 5.03406C53.7584 5.69821 54.1387 6.63119 54.1387 7.83299V14.6643C54.1387 15.8661 53.7584 16.807 52.9977 17.4869C52.2528 18.1511 51.1276 18.4832 49.6221 18.4832C48.1165 18.4832 46.9834 18.1511 46.2227 17.4869C45.4778 16.807 45.1054 15.8661 45.1054 14.6643V7.83299Z" fill="#403937"/>
<path d="M56.4492 4.08527C56.4492 1.41284 57.8597 0.0766322 60.6806 0.0766322C61.0451 0.0766322 61.4809 0.116165 61.9881 0.195231V2.94672C61.7345 2.9151 61.4968 2.89928 61.2749 2.89928C60.4667 2.89928 60.0625 3.2788 60.0625 4.03783V4.25131H61.9881V7.05024H60.0625V18.246H56.4492V7.05024H55.0942V4.25131H56.4492V4.08527Z" fill="#403937"/>
<path d="M63.4601 4.08527C63.4601 1.41284 64.8705 0.0766322 67.6915 0.0766322C68.056 0.0766322 68.4918 0.116165 68.9989 0.195231V2.94672C68.7454 2.9151 68.5076 2.89928 68.2858 2.89928C67.4775 2.89928 67.0734 3.2788 67.0734 4.03783V4.25131H68.9989V7.05024H67.0734V18.246H63.4601V7.05024H62.1051V4.25131H63.4601V4.08527Z" fill="#403937"/>
<path d="M69.8291 14.261V7.83299C69.8291 6.63119 70.2015 5.69821 70.9464 5.03406C71.6912 4.35409 72.8164 4.01411 74.322 4.01411C77.2221 4.01411 78.6722 5.28707 78.6722 7.83299V12.6481H73.276V13.9764C73.276 14.4508 73.4028 14.7908 73.6563 14.9964C73.9258 15.1861 74.5042 15.281 75.3917 15.281C76.295 15.281 77.2776 15.1229 78.3394 14.8066V17.9376C77.2301 18.2381 76.0415 18.3883 74.7736 18.3883C71.4773 18.3883 69.8291 17.0125 69.8291 14.261ZM73.276 9.92033H75.3679V7.88043C75.3679 7.27953 75.0193 6.97908 74.322 6.97908C73.6247 6.97908 73.276 7.27953 73.276 7.88043V9.92033Z" fill="#403937"/>
<path d="M80.09 14.261V7.83299C80.09 6.63119 80.4624 5.69821 81.2073 5.03406C81.9521 4.35409 83.0773 4.01411 84.5829 4.01411C87.483 4.01411 88.9331 5.28707 88.9331 7.83299V12.6481H83.5369V13.9764C83.5369 14.4508 83.6637 14.7908 83.9173 14.9964C84.1867 15.1861 84.7651 15.281 85.6526 15.281C86.5559 15.281 87.5385 15.1229 88.6003 14.8066V17.9376C87.491 18.2381 86.3024 18.3883 85.0345 18.3883C81.7382 18.3883 80.09 17.0125 80.09 14.261ZM83.5369 9.92033H85.6288V7.88043C85.6288 7.27953 85.2802 6.97908 84.5829 6.97908C83.8856 6.97908 83.5369 7.27953 83.5369 7.88043V9.92033Z" fill="#403937"/>
<path d="M41.0305 26.9797C41.0305 25.8119 40.4128 25.2281 39.1775 25.2281H37.2075V35.874H39.1775C40.4128 35.874 41.0305 35.2771 41.0305 34.0834V26.9797ZM35.8226 24.0214H39.2555C40.2958 24.0214 41.0825 24.2874 41.6156 24.8194C42.1488 25.3513 42.4154 26.065 42.4154 26.9602V34.1224C42.4154 35.0436 42.1553 35.7702 41.6352 36.3022C41.115 36.8341 40.3348 37.1001 39.2945 37.1001H35.8226V24.0214Z" fill="#403937"/>
<path d="M44.6944 34.2781V28.8675C44.6944 27.9463 44.9545 27.2132 45.4746 26.6683C46.0078 26.1104 46.8075 25.8314 47.8737 25.8314C48.94 25.8314 49.7267 26.1104 50.2339 26.6683C50.754 27.2132 51.0141 27.9463 51.0141 28.8675V32.254H46.0598V34.2197C46.0598 34.8036 46.2418 35.2382 46.6059 35.5237C46.97 35.8091 47.5357 35.9518 48.3029 35.9518C49.0701 35.9518 49.8633 35.8351 50.6825 35.6015V36.886C50.0323 37.0936 49.2586 37.1974 48.3614 37.1974C45.9167 37.1974 44.6944 36.2243 44.6944 34.2781ZM46.0598 31.1057H49.6877V28.8675C49.6877 27.6479 49.0831 27.0381 47.8737 27.0381C46.6644 27.0381 46.0598 27.6479 46.0598 28.8675V31.1057Z" fill="#403937"/>
<path d="M53.3849 23.0872H54.7697V37.1001H53.3849V23.0872Z" fill="#403937"/>
<path d="M58.1438 24.7804C57.5847 24.7804 57.3051 24.482 57.3051 23.8852C57.3051 23.2883 57.5847 22.9899 58.1438 22.9899C58.716 22.9899 59.002 23.2883 59.002 23.8852C59.002 24.482 58.716 24.7804 58.1438 24.7804ZM57.4611 26.1039H58.846V37.1001H57.4611V26.1039Z" fill="#403937"/>
<path d="M65.9846 26.026H67.3889L64.9313 37.1001H62.9808L60.5231 26.026H61.947L63.0198 31.1057L63.9755 36.127C64.3656 33.9732 65.0353 30.6062 65.9846 26.026Z" fill="#403937"/>
<path d="M68.8663 34.2781V28.8675C68.8663 27.9463 69.1264 27.2132 69.6465 26.6683C70.1796 26.1104 70.9794 25.8314 72.0456 25.8314C73.1119 25.8314 73.8986 26.1104 74.4058 26.6683C74.9259 27.2132 75.186 27.9463 75.186 28.8675V32.254H70.2317V34.2197C70.2317 34.8036 70.4137 35.2382 70.7778 35.5237C71.1419 35.8091 71.7075 35.9518 72.4747 35.9518C73.2419 35.9518 74.0351 35.8351 74.8544 35.6015V36.886C74.2042 37.0936 73.4305 37.1974 72.5333 37.1974C70.0886 37.1974 68.8663 36.2243 68.8663 34.2781ZM70.2317 31.1057H73.8596V28.8675C73.8596 27.6479 73.255 27.0381 72.0456 27.0381C70.8363 27.0381 70.2317 27.6479 70.2317 28.8675V31.1057Z" fill="#403937"/>
<path d="M81.1457 25.9676H81.6333V27.2911H80.9701C80.502 27.2911 80.0794 27.4143 79.7023 27.6609C79.5853 27.7387 79.3317 27.9139 78.9416 28.1864V37.1001H77.5567V26.026H78.8831V26.8629C78.9221 26.837 79.0196 26.7656 79.1757 26.6488C79.3447 26.5321 79.4422 26.4672 79.4682 26.4542C79.5073 26.4283 79.5918 26.3764 79.7218 26.2985C79.8649 26.2207 79.9689 26.1752 80.0339 26.1623C80.1119 26.1363 80.2159 26.1039 80.346 26.065C80.541 26.0001 80.8076 25.9676 81.1457 25.9676Z" fill="#403937"/>
<path d="M87.5668 26.026H88.9517L85.9089 40H84.5826L85.1872 37.1001H84.5045L82.0859 26.026H83.4903L84.6606 31.5339L85.5188 36.127C85.7789 34.596 86.0649 33.0649 86.377 31.5339L87.5668 26.026Z" fill="#403937"/>
</g>
<defs>
<filter id="filter0_d_215_431" x="0" y="0" width="92.9517" height="48" filterUnits="userSpaceOnUse" color-interpolation-filters="sRGB">
<feFlood flood-opacity="0" result="BackgroundImageFix"/>
<feColorMatrix in="SourceAlpha" type="matrix" values="0 0 0 0 0 0 0 0 0 0 0 0 0 0 0 0 0 0 127 0" result="hardAlpha"/>
<feOffset dy="4"/>
<feGaussianBlur stdDeviation="2"/>
<feComposite in2="hardAlpha" operator="out"/>
<feColorMatrix type="matrix" values="0 0 0 0 0 0 0 0 0 0 0 0 0 0 0 0 0 0 0.25 0"/>
<feBlend mode="normal" in2="BackgroundImageFix" result="effect1_dropShadow_215_431"/>
<feBlend mode="normal" in="SourceGraphic" in2="effect1_dropShadow_215_431" result="shape"/>
</filter>
</defs>
</svg>
